<svg xmlns="http://www.w3.org/2000/svg"  viewBox="0 0 100 100" width="100px" height="100px"><path fill="#c7ede6" d="M87.215,56.71C88.35,54.555,89,52.105,89,49.5c0-6.621-4.159-12.257-10.001-14.478	C78.999,35.015,79,35.008,79,35c0-11.598-9.402-21-21-21c-9.784,0-17.981,6.701-20.313,15.757C36.211,29.272,34.638,29,33,29	c-7.692,0-14.023,5.793-14.89,13.252C12.906,43.353,9,47.969,9,53.5C9,59.851,14.149,65,20.5,65c0.177,0,0.352-0.012,0.526-0.022	C21.022,65.153,21,65.324,21,65.5C21,76.822,30.178,86,41.5,86c6.437,0,12.175-2.972,15.934-7.614C59.612,80.611,62.64,82,66,82	c4.65,0,8.674-2.65,10.666-6.518C77.718,75.817,78.837,76,80,76c6.075,0,11-4.925,11-11C91,61.689,89.53,58.727,87.215,56.71z"/><path fill="#fdfcef" d="M76.511,60.5V61h3v-0.5c0,0,4.242,0,5.5,0c2.485,0,4.5-2.015,4.5-4.5 c0-2.333-1.782-4.229-4.055-4.455c0.022-0.181,0.055-0.358,0.055-0.545c0-2.485-2.015-4.5-4.5-4.5 c-1.438,0-2.703,0.686-3.527,1.736c-0.14-2.636-2.302-4.736-4.973-4.736c-2.761,0-5,2.239-5,5c0,0.446,0.077,0.87,0.187,1.282 c-0.642-0.777-1.6-1.282-2.687-1.282c-1.781,0-3.234,1.335-3.455,3.055c-0.181-0.022-0.358-0.055-0.545-0.055 c-2.485,0-4.5,2.015-4.5,4.5s2.015,4.5,4.5,4.5s9.5,0,9.5,0H76.511z"/><path fill="#472b29" d="M72.511,43c-3.033,0-5.5,2.467-5.5,5.5c0,0.016,0,0.031,0,0.047c-0.602-0.354-1.29-0.547-2-0.547 c-1.831,0-3.411,1.261-3.858,3.005C61.106,51.002,61.059,51,61.011,51c-2.757,0-5,2.243-5,5s2.243,5,5,5h15.5 c0.276,0,0.5-0.224,0.5-0.5s-0.224-0.5-0.5-0.5h-15.5c-2.206,0-4-1.794-4-4s1.794-4,4-4c0.117,0,0.23,0.017,0.343,0.032 l0.141,0.019c0.021,0.003,0.041,0.004,0.062,0.004c0.246,0,0.462-0.185,0.495-0.437C62.244,50.125,63.516,49,65.011,49 c0.885,0,1.723,0.401,2.301,1.1c0.098,0.118,0.241,0.182,0.386,0.182c0.078,0,0.156-0.018,0.228-0.056 c0.209-0.107,0.314-0.346,0.254-0.573c-0.116-0.436-0.17-0.802-0.17-1.153c0-2.481,2.019-4.5,4.5-4.5 c2.381,0,4.347,1.872,4.474,4.263c0.011,0.208,0.15,0.387,0.349,0.45c0.05,0.016,0.101,0.024,0.152,0.024 c0.15,0,0.296-0.069,0.392-0.192C78.649,47.563,79.791,47,81.011,47c2.206,0,4,1.794,4,4c0,0.117-0.017,0.23-0.032,0.343 l-0.019,0.141c-0.016,0.134,0.022,0.268,0.106,0.373c0.084,0.105,0.207,0.172,0.34,0.185c2.055,0.205,3.604,1.906,3.604,3.958 c0,2.206-1.794,4-4,4h-5.5c-0.276,0-0.5,0.224-0.5,0.5s0.224,0.5,0.5,0.5h5.5c2.757,0,5-2.243,5-5c0-2.397-1.689-4.413-4.003-4.877 c0.002-0.041,0.003-0.082,0.003-0.123c0-2.757-2.243-5-5-5c-1.176,0-2.293,0.416-3.183,1.164C77.23,44.76,75.066,43,72.511,43 L72.511,43z"/><path fill="#472b29" d="M71.011,50c-1.403,0-2.609,0.999-2.913,2.341C67.731,52.119,67.313,52,66.886,52 c-1.202,0-2.198,0.897-2.353,2.068C64.331,54.022,64.137,54,63.949,54c-1.529,0-2.811,1.2-2.918,2.732 C61.021,56.87,61.125,56.99,61.263,57c0.006,0,0.012,0,0.018,0c0.13,0,0.24-0.101,0.249-0.232c0.089-1.271,1.151-2.268,2.419-2.268 c0.229,0,0.47,0.042,0.738,0.127c0.022,0.007,0.045,0.01,0.067,0.01c0.055,0,0.11-0.02,0.156-0.054 c0.064-0.047,0.102-0.129,0.102-0.209c0-1.034,0.841-1.875,1.875-1.875c0.447,0,0.885,0.168,1.231,0.473 c0.047,0.041,0.106,0.063,0.165,0.063c0.032,0,0.063-0.006,0.093-0.019c0.088-0.035,0.148-0.117,0.155-0.212 c0.102-1.292,1.191-2.305,2.479-2.305c0.208,0,0.425,0.034,0.682,0.107c0.023,0.007,0.047,0.01,0.07,0.01 c0.109,0,0.207-0.073,0.239-0.182c0.038-0.133-0.039-0.271-0.172-0.309C71.528,50.04,71.268,50,71.011,50L71.011,50z"/><path fill="#472b29" d="M84.895,51.5c-1.326,0-2.508,0.897-2.874,2.182c-0.038,0.133,0.039,0.271,0.172,0.309 c0.023,0.007,0.046,0.01,0.068,0.01c0.109,0,0.209-0.072,0.24-0.182C82.807,52.748,83.791,52,84.895,52 c0.117,0,0.23,0.014,0.342,0.029c0.012,0.002,0.023,0.003,0.035,0.003c0.121,0,0.229-0.092,0.246-0.217 c0.019-0.137-0.077-0.263-0.214-0.281C85.169,51.516,85.034,51.5,84.895,51.5L84.895,51.5z"/><path fill="#fff" d="M15.511,51h-10c-0.276,0-0.5-0.224-0.5-0.5s0.224-0.5,0.5-0.5h10c0.276,0,0.5,0.224,0.5,0.5 S15.788,51,15.511,51z"/><path fill="#fff" d="M18.511,51h-1c-0.276,0-0.5-0.224-0.5-0.5s0.224-0.5,0.5-0.5h1c0.276,0,0.5,0.224,0.5,0.5 S18.788,51,18.511,51z"/><path fill="#fff" d="M23.502,53h-8.991c-0.276,0-0.5-0.224-0.5-0.5s0.224-0.5,0.5-0.5h8.991c0.276,0,0.5,0.224,0.5,0.5 S23.778,53,23.502,53z"/><path fill="#fff" d="M12.511,53h-1c-0.276,0-0.5-0.224-0.5-0.5s0.224-0.5,0.5-0.5h1c0.276,0,0.5,0.224,0.5,0.5 S12.788,53,12.511,53z"/><path fill="#fff" d="M9.511,53h-2c-0.276,0-0.5-0.224-0.5-0.5s0.224-0.5,0.5-0.5h2c0.276,0,0.5,0.224,0.5,0.5 S9.788,53,9.511,53z"/><path fill="#fff" d="M15.511,55h-2c-0.276,0-0.5-0.224-0.5-0.5s0.224-0.5,0.5-0.5h2c0.276,0,0.5,0.224,0.5,0.5 S15.787,55,15.511,55z"/><path fill="#fff" d="M18.511,46c-0.177,0-0.823,0-1,0c-0.276,0-0.5,0.224-0.5,0.5c0,0.276,0.224,0.5,0.5,0.5 c0.177,0,0.823,0,1,0c0.276,0,0.5-0.224,0.5-0.5C19.011,46.224,18.787,46,18.511,46z"/><path fill="#fff" d="M18.511,48c-0.177,0-4.823,0-5,0c-0.276,0-0.5,0.224-0.5,0.5c0,0.276,0.224,0.5,0.5,0.5 c0.177,0,4.823,0,5,0c0.276,0,0.5-0.224,0.5-0.5C19.011,48.224,18.787,48,18.511,48z"/><path fill="#fff" d="M23.511,50c-0.177,0-2.823,0-3,0c-0.276,0-0.5,0.224-0.5,0.5c0,0.276,0.224,0.5,0.5,0.5 c0.177,0,2.823,0,3,0c0.276,0,0.5-0.224,0.5-0.5C24.011,50.224,23.787,50,23.511,50z"/><path fill="#fff" d="M72.511,24h-10c-0.276,0-0.5-0.224-0.5-0.5s0.224-0.5,0.5-0.5h10c0.276,0,0.5,0.224,0.5,0.5 S72.787,24,72.511,24z"/><path fill="#fff" d="M76.511,24h-2c-0.276,0-0.5-0.224-0.5-0.5s0.224-0.5,0.5-0.5h2c0.276,0,0.5,0.224,0.5,0.5 S76.787,24,76.511,24z"/><path fill="#fff" d="M81.511,26h-10c-0.276,0-0.5-0.224-0.5-0.5s0.224-0.5,0.5-0.5h10c0.276,0,0.5,0.224,0.5,0.5 S81.788,26,81.511,26z"/><path fill="#fff" d="M69.511,26h-1c-0.276,0-0.5-0.224-0.5-0.5s0.224-0.5,0.5-0.5h1c0.276,0,0.5,0.224,0.5,0.5 S69.787,26,69.511,26z"/><path fill="#fff" d="M66.481,26h-1.97c-0.276,0-0.5-0.224-0.5-0.5s0.224-0.5,0.5-0.5h1.97c0.276,0,0.5,0.224,0.5,0.5 S66.757,26,66.481,26z"/><path fill="#fff" d="M75.511,22h-5c-0.276,0-0.5-0.224-0.5-0.5s0.224-0.5,0.5-0.5h5c0.276,0,0.5,0.224,0.5,0.5 S75.788,22,75.511,22z"/><path fill="#fff" d="M72.511,28h-2c-0.276,0-0.5-0.224-0.5-0.5s0.224-0.5,0.5-0.5h2c0.276,0,0.5,0.224,0.5,0.5 S72.787,28,72.511,28z"/><g><path fill="#55a7f9" d="M52.011,26c-13.234,0-23.999,10.766-23.999,24s10.765,24,23.999,24s24.001-10.767,24.001-24.001 S65.245,26,52.011,26L52.011,26z"/></g><g><path fill="#472b29" d="M52.011,70.5c-11.304,0-20.5-9.196-20.5-20.5s9.196-20.5,20.5-20.5 c6.502,0,12.48,2.994,16.401,8.213c0.166,0.221,0.121,0.534-0.1,0.7c-0.22,0.166-0.534,0.122-0.7-0.1 c-3.73-4.966-9.417-7.813-15.602-7.813c-10.752,0-19.5,8.748-19.5,19.5s8.748,19.5,19.5,19.5c3.221,0,6.416-0.806,9.238-2.331 c0.244-0.132,0.547-0.041,0.678,0.202c0.131,0.243,0.041,0.546-0.202,0.678C58.756,69.652,55.397,70.5,52.011,70.5z"/></g><g><path fill="#472b29" d="M63.973,66.52c-0.152,0-0.302-0.069-0.401-0.2c-0.166-0.221-0.121-0.535,0.101-0.7 c0.74-0.554,1.448-1.167,2.104-1.821c0.195-0.195,0.512-0.195,0.707,0.001c0.195,0.195,0.195,0.512-0.001,0.707 c-0.689,0.687-1.433,1.331-2.21,1.914C64.183,66.487,64.077,66.52,63.973,66.52z"/></g><g><path fill="#472b29" d="M67.994,62.51c-0.104,0-0.21-0.033-0.3-0.101c-0.221-0.166-0.265-0.479-0.099-0.7 c2.562-3.401,3.917-7.451,3.917-11.71c0-3.076-0.699-6.021-2.077-8.753c-0.125-0.247-0.025-0.547,0.221-0.671 c0.247-0.125,0.546-0.026,0.671,0.221c1.45,2.873,2.185,5.969,2.185,9.203c0,4.478-1.424,8.735-4.118,12.312 C68.295,62.441,68.146,62.51,67.994,62.51z"/></g><path fill="#472b29" d="M52.011,27.4c12.462,0,22.601,10.138,22.601,22.599c0,12.462-10.139,22.601-22.601,22.601	c-12.461,0-22.599-10.138-22.599-22.6S39.549,27.4,52.011,27.4 M52.011,26c-13.234,0-23.999,10.766-23.999,24s10.765,24,23.999,24	s24.001-10.767,24.001-24.001S65.245,26,52.011,26L52.011,26z"/><g><path fill="#fdfcef" d="M36.511,73.5c0,0,1.567,0,3.5,0s3.5-1.567,3.5-3.5c0-1.781-1.335-3.234-3.055-3.455 c0.028-0.179,0.055-0.358,0.055-0.545c0-1.933-1.567-3.5-3.5-3.5c-1.032,0-1.95,0.455-2.59,1.165 c-0.384-1.808-1.987-3.165-3.91-3.165c-2.209,0-4,1.791-4,4c0,0.191,0.03,0.374,0.056,0.558c-0.428-0.344-0.965-0.558-1.556-0.558 c-1.228,0-2.245,0.887-2.455,2.055c-0.179-0.028-0.358-0.055-0.545-0.055c-1.933,0-3.5,1.567-3.5,3.5s1.567,3.5,3.5,3.5 s7.5,0,7.5,0V74h7V73.5z"/><path fill="#472b29" d="M38.261,69c-0.138,0-0.25-0.112-0.25-0.25c0-1.223,0.995-2.218,2.218-2.218 c0.034,0.009,0.737-0.001,1.244,0.136c0.133,0.036,0.212,0.173,0.176,0.306c-0.036,0.134-0.173,0.213-0.306,0.176 c-0.444-0.12-1.1-0.12-1.113-0.118c-0.948,0-1.719,0.771-1.719,1.718C38.511,68.888,38.399,69,38.261,69z"/><circle cx="31.511" cy="73.5" r=".5" fill="#472b29"/><path fill="#472b29" d="M40.011,74h-3.5c-0.276,0-0.5-0.224-0.5-0.5s0.224-0.5,0.5-0.5h3.5c1.654,0,3-1.346,3-3 c0-1.496-1.125-2.768-2.618-2.959c-0.134-0.018-0.255-0.088-0.336-0.196s-0.115-0.244-0.094-0.377 c0.024-0.153,0.049-0.308,0.049-0.468c0-1.654-1.346-3-3-3c-0.85,0-1.638,0.355-2.219,1c-0.125,0.139-0.321,0.198-0.5,0.148 c-0.182-0.049-0.321-0.195-0.36-0.379C33.591,62.165,32.152,61,30.511,61c-1.93,0-3.5,1.57-3.5,3.5c0,0.143,0.021,0.28,0.041,0.418 c0.029,0.203-0.063,0.438-0.242,0.54c-0.179,0.102-0.396,0.118-0.556-0.01C25.89,65.155,25.46,65,25.011,65 c-0.966,0-1.792,0.691-1.963,1.644C23,66.91,22.752,67.09,22.479,67.049C22.326,67.025,22.171,67,22.011,67c-1.654,0-3,1.346-3,3 s1.346,3,3,3h7.5c0.276,0,0.5,0.224,0.5,0.5s-0.224,0.5-0.5,0.5h-7.5c-2.206,0-4-1.794-4-4s1.794-4,4-4 c0.059,0,0.116,0.002,0.174,0.006C22.599,64.82,23.722,64,25.011,64c0.349,0,0.689,0.061,1.011,0.18 c0.165-2.333,2.115-4.18,4.489-4.18c1.831,0,3.466,1.127,4.153,2.774C35.345,62.276,36.167,62,37.011,62c2.206,0,4,1.794,4,4 c0,0.048-0.001,0.095-0.004,0.142c1.743,0.448,3.004,2.027,3.004,3.858C44.011,72.206,42.217,74,40.011,74z"/><path fill="#472b29" d="M34.511,73c-0.159,0-0.841,0-1,0c-0.276,0-0.5,0.224-0.5,0.5c0,0.276,0.224,0.5,0.5,0.5 c0.159,0,0.841,0,1,0c0.276,0,0.5-0.224,0.5-0.5C35.011,73.224,34.787,73,34.511,73z"/></g><path fill="#fff" d="M57,57H44c-2.761,0-5-2.239-5-5v-8h13c2.761,0,5,2.239,5,5V57z"/><polygon fill="#fff" points="65,57 59,53 59,48 65,44"/><polyline fill="none" stroke="#472b29" stroke-linecap="round" stroke-linejoin="round" stroke-miterlimit="10" stroke-width=".5" points="39,47 39,44 46,44"/><path fill="none" stroke="#472b29" stroke-linecap="round" stroke-linejoin="round" stroke-miterlimit="10" stroke-width=".5" d="M48,57h-4c-2.761,0-5-2.239-5-5v-3"/><line x1="52" x2="50" y1="57" y2="57" fill="none" stroke="#472b29" stroke-linecap="round" stroke-linejoin="round" stroke-miterlimit="10" stroke-width=".5"/><path fill="none" stroke="#472b29" stroke-linecap="round" stroke-linejoin="round" stroke-miterlimit="10" stroke-width=".5" d="M48,44h4c2.761,0,5,2.239,5,5v8h-3"/><polyline fill="none" stroke="#472b29" stroke-linecap="round" stroke-linejoin="round" stroke-miterlimit="10" stroke-width=".5" points="61,54.333 59,53 59,48 65,44 65,47"/><polyline fill="none" stroke="#472b29" stroke-linecap="round" stroke-linejoin="round" stroke-miterlimit="10" stroke-width=".5" points="65,49 65,57 63,55.667"/></svg>