<svg xmlns="http://www.w3.org/2000/svg"  viewBox="0 0 100 100" width="100px" height="100px"><path fill="#c7ede6" d="M87.215,56.71C88.35,54.555,89,52.105,89,49.5c0-6.621-4.159-12.257-10.001-14.478 C78.999,35.015,79,35.008,79,35c0-11.598-9.402-21-21-21c-9.784,0-17.981,6.701-20.313,15.757C36.211,29.272,34.638,29,33,29 c-7.692,0-14.023,5.793-14.89,13.252C12.906,43.353,9,47.969,9,53.5C9,59.851,14.149,65,20.5,65c0.177,0,0.352-0.012,0.526-0.022 C21.022,65.153,21,65.324,21,65.5C21,76.822,30.178,86,41.5,86c6.437,0,12.175-2.972,15.934-7.614C59.612,80.611,62.64,82,66,82 c4.65,0,8.674-2.65,10.666-6.518C77.718,75.817,78.837,76,80,76c6.075,0,11-4.925,11-11C91,61.689,89.53,58.727,87.215,56.71z"/><path fill="#fdfcef" d="M38.875,37.5c0,0,3.64,0,6.125,0s4.5-2.015,4.5-4.5c0-2.333-1.782-4.229-4.055-4.455 C45.467,28.364,45.5,28.187,45.5,28c0-2.485-2.015-4.5-4.5-4.5c-1.438,0-2.703,0.686-3.527,1.736 C37.333,22.6,35.171,20.5,32.5,20.5c-2.761,0-5,2.239-5,5c0,0.446,0.077,0.87,0.187,1.282C27.045,26.005,26.086,25.5,25,25.5 c-1.781,0-3.234,1.335-3.455,3.055C21.364,28.533,21.187,28.5,21,28.5c-2.485,0-4.5,2.015-4.5,4.5s2.015,4.5,4.5,4.5s9.5,0,9.5,0 h5.375V38h3V37.5z"/><path fill="#472b29" d="M32.5,20c-3.033,0-5.5,2.467-5.5,5.5c0,0.016,0,0.031,0,0.047C26.398,25.192,25.71,25,25,25 c-1.831,0-3.411,1.261-3.858,3.005C21.095,28.002,21.048,28,21,28c-2.757,0-5,2.243-5,5s2.243,5,5,5h14.875 c0.276,0,0.5-0.224,0.5-0.5s-0.224-0.5-0.5-0.5H21c-2.206,0-4-1.794-4-4s1.794-4,4-4c0.117,0,0.23,0.017,0.343,0.032l0.141,0.019 c0.021,0.003,0.041,0.004,0.062,0.004c0.246,0,0.462-0.185,0.495-0.437C22.232,27.125,23.504,26,25,26 c0.885,0,1.723,0.401,2.301,1.1c0.098,0.118,0.241,0.182,0.386,0.182c0.078,0,0.156-0.018,0.228-0.056 c0.209-0.107,0.314-0.346,0.254-0.573C28.054,26.218,28,25.852,28,25.5c0-2.481,2.019-4.5,4.5-4.5 c2.381,0,4.347,1.872,4.474,4.263c0.011,0.208,0.15,0.387,0.349,0.45c0.05,0.016,0.101,0.024,0.152,0.024 c0.15,0,0.296-0.069,0.392-0.192C38.638,24.563,39.779,24,41,24c2.206,0,4,1.794,4,4c0,0.117-0.017,0.23-0.032,0.343l-0.019,0.141 c-0.016,0.134,0.022,0.268,0.106,0.373c0.084,0.105,0.207,0.172,0.34,0.185C47.451,29.247,49,30.949,49,33c0,2.206-1.794,4-4,4 h-6.125c-0.276,0-0.5,0.224-0.5,0.5s0.224,0.5,0.5,0.5H45c2.757,0,5-2.243,5-5c0-2.397-1.689-4.413-4.003-4.877 C45.999,28.082,46,28.041,46,28c0-2.757-2.243-5-5-5c-1.176,0-2.293,0.416-3.183,1.164C37.219,21.76,35.055,20,32.5,20L32.5,20z"/><path fill="#472b29" d="M31,27c-1.403,0-2.609,0.999-2.913,2.341C27.72,29.119,27.301,29,26.875,29 c-1.202,0-2.198,0.897-2.353,2.068C24.319,31.022,24.126,31,23.937,31c-1.529,0-2.811,1.2-2.918,2.732 C21.01,33.87,21.114,33.99,21.251,34c0.006,0,0.012,0,0.018,0c0.13,0,0.24-0.101,0.249-0.232c0.089-1.271,1.151-2.268,2.419-2.268 c0.229,0,0.47,0.042,0.738,0.127c0.022,0.007,0.045,0.01,0.067,0.01c0.055,0,0.11-0.02,0.156-0.054 C24.962,31.537,25,31.455,25,31.375c0-1.034,0.841-1.875,1.875-1.875c0.447,0,0.885,0.168,1.231,0.473 c0.047,0.041,0.106,0.063,0.165,0.063c0.032,0,0.063-0.006,0.093-0.019c0.088-0.035,0.148-0.117,0.155-0.212 C28.623,28.512,29.712,27.5,31,27.5c0.208,0,0.425,0.034,0.682,0.107c0.023,0.007,0.047,0.01,0.07,0.01 c0.109,0,0.207-0.073,0.239-0.182c0.038-0.133-0.039-0.271-0.172-0.309C31.517,27.04,31.256,27,31,27L31,27z"/><path fill="#472b29" d="M44.883,28.5c-1.326,0-2.508,0.897-2.874,2.182c-0.038,0.133,0.039,0.271,0.172,0.309 C42.205,30.997,42.228,31,42.25,31c0.109,0,0.209-0.072,0.24-0.182C42.795,29.748,43.779,29,44.883,29 c0.117,0,0.23,0.014,0.342,0.029c0.012,0.002,0.023,0.003,0.035,0.003c0.121,0,0.229-0.092,0.246-0.217 c0.019-0.137-0.077-0.263-0.214-0.281C45.158,28.516,45.022,28.5,44.883,28.5L44.883,28.5z"/><path fill="#fff" d="M17.405,53H7.5C7.224,53,7,52.776,7,52.5S7.224,52,7.5,52h9.905c0.276,0,0.5,0.224,0.5,0.5 S17.682,53,17.405,53z"/><path fill="#fff" d="M20.5,53h-1c-0.276,0-0.5-0.224-0.5-0.5s0.224-0.5,0.5-0.5h1c0.276,0,0.5,0.224,0.5,0.5 S20.777,53,20.5,53z"/><path fill="#fff" d="M25.491,55H16.5c-0.276,0-0.5-0.224-0.5-0.5s0.224-0.5,0.5-0.5h8.991c0.276,0,0.5,0.224,0.5,0.5 S25.767,55,25.491,55z"/><path fill="#fff" d="M14.5,55h-1c-0.276,0-0.5-0.224-0.5-0.5s0.224-0.5,0.5-0.5h1c0.276,0,0.5,0.224,0.5,0.5 S14.777,55,14.5,55z"/><path fill="#fff" d="M11.5,55h-2C9.224,55,9,54.776,9,54.5S9.224,54,9.5,54h2c0.276,0,0.5,0.224,0.5,0.5 S11.777,55,11.5,55z"/><path fill="#fff" d="M17.5,57h-2c-0.276,0-0.5-0.224-0.5-0.5s0.224-0.5,0.5-0.5h2c0.276,0,0.5,0.224,0.5,0.5 S17.776,57,17.5,57z"/><path fill="#fff" d="M20.5,48c-0.177,0-0.823,0-1,0c-0.276,0-0.5,0.224-0.5,0.5c0,0.276,0.224,0.5,0.5,0.5 c0.177,0,0.823,0,1,0c0.276,0,0.5-0.224,0.5-0.5C21,48.224,20.776,48,20.5,48z"/><path fill="#fff" d="M20.5,50c-0.177,0-4.823,0-5,0c-0.276,0-0.5,0.224-0.5,0.5c0,0.276,0.224,0.5,0.5,0.5 c0.177,0,4.823,0,5,0c0.276,0,0.5-0.224,0.5-0.5C21,50.224,20.776,50,20.5,50z"/><path fill="#fff" d="M25.5,52c-0.177,0-2.823,0-3,0c-0.276,0-0.5,0.224-0.5,0.5c0,0.276,0.224,0.5,0.5,0.5 c0.177,0,2.823,0,3,0c0.276,0,0.5-0.224,0.5-0.5C26,52.224,25.776,52,25.5,52z"/><g><path fill="#fff" d="M87.5,65h-10c-0.276,0-0.5-0.224-0.5-0.5s0.224-0.5,0.5-0.5h10c0.276,0,0.5,0.224,0.5,0.5 S87.776,65,87.5,65z"/><path fill="#fff" d="M91.5,65h-2c-0.276,0-0.5-0.224-0.5-0.5s0.224-0.5,0.5-0.5h2c0.276,0,0.5,0.224,0.5,0.5 S91.776,65,91.5,65z"/><path fill="#fff" d="M96.5,67h-10c-0.276,0-0.5-0.224-0.5-0.5s0.224-0.5,0.5-0.5h10c0.276,0,0.5,0.224,0.5,0.5 S96.777,67,96.5,67z"/><path fill="#fff" d="M84.5,67h-1c-0.276,0-0.5-0.224-0.5-0.5s0.224-0.5,0.5-0.5h1c0.276,0,0.5,0.224,0.5,0.5 S84.776,67,84.5,67z"/><path fill="#fff" d="M81.375,67H79.5c-0.276,0-0.5-0.224-0.5-0.5s0.224-0.5,0.5-0.5h1.875c0.276,0,0.5,0.224,0.5,0.5 S81.651,67,81.375,67z"/><path fill="#fff" d="M90.5,63h-5c-0.276,0-0.5-0.224-0.5-0.5s0.224-0.5,0.5-0.5h5c0.276,0,0.5,0.224,0.5,0.5 S90.777,63,90.5,63z"/><path fill="#fff" d="M87.5,69h-2c-0.276,0-0.5-0.224-0.5-0.5s0.224-0.5,0.5-0.5h2c0.276,0,0.5,0.224,0.5,0.5 S87.776,69,87.5,69z"/></g><g><path fill="#c5def0" d="M51.86,62.943c-9.185-6.307-8.204-17.457-0.367-17.329c6.67,0.109,7.092,7.834,4.142,10.534 c-0.503,0.46-0.368,1.306,0.223,1.645c10.192,5.854,21.151-1.551,19.21-12.393c-0.291-1.466-0.567-2.414-1.044-3.529 c-3.955-9.249-13.439-15.571-24.297-14.81C37.615,27.911,27.81,37.796,27.05,49.914c-0.893,14.242,10.393,26.072,24.443,26.072 c8.705,0,16.346-4.543,20.689-11.385c0.379-0.598-0.3-1.322-0.916-0.973C65.555,66.86,57.153,66.577,51.86,62.943z"/><path fill="#8889b9" d="M71.266,63.627c-5.711,3.233-14.113,2.95-19.406-0.684c-9.185-6.307-8.204-17.457-0.367-17.329 c0.002,0,0.004,0,0.006,0.001l-0.802-2.205l-17.941,2.817l-4.496,13.016c3.244,9.727,12.416,16.743,23.234,16.743 c8.705,0,16.346-4.543,20.689-11.385C72.561,64.003,71.882,63.279,71.266,63.627z"/><path fill="#78a0cf" d="M27.524,56.538c2.326,11.106,12.172,19.447,23.969,19.447c2.451,0,4.814-0.372,7.046-1.042 c-17.706,1.238-21.228-13.115-17.15-21.92c2.301-4.967,7.784-8.542,11.94-7.133c1.897,0.537,3.071,1.834,3.634,3.377 c0.076,0.147,0.153,0.292,0.224,0.449C53.383,33.592,23.81,34.994,27.524,56.538z"/><path fill="#c0d078" d="M57.379,51.648c-0.004,1.762-0.636,3.486-1.744,4.5c-0.503,0.46-0.368,1.306,0.223,1.645 c10.192,5.854,21.151-1.551,19.21-12.393c-0.291-1.466-0.567-2.414-1.044-3.529c-3.955-9.249-13.439-15.571-24.297-14.81 c-1.04,0.073-2.055,0.236-3.057,0.438C60.008,34.465,60.836,45.392,57.379,51.648z"/><path fill="#88ae45" d="M55.704,56.072c-0.025,0.024-0.045,0.053-0.07,0.076c-0.503,0.46-0.368,1.306,0.223,1.645 c10.192,5.854,21.151-1.551,19.21-12.393c-0.291-1.466-0.567-2.414-1.044-3.529c-1.874-4.384-5.001-8.096-8.917-10.722 C70.754,45.655,62.763,54.602,55.704,56.072z"/><path fill="#472b29" d="M51.493,28.4c9.263,0,17.602,5.504,21.244,14.022c0.431,1.008,0.682,1.859,0.953,3.225 c0.61,3.408-0.171,6.621-2.2,9.045c-2,2.39-5.016,3.761-8.275,3.761c-2.115,0-4.218-0.555-6.258-1.651 c1.779-1.974,2.345-5.351,1.3-8.108c-1.059-2.793-3.516-4.426-6.739-4.479l-0.157-0.001c-3.436,0-6.077,1.899-7.065,5.081 c-1.251,4.031,0.335,10.383,6.773,14.803c2.982,2.048,6.915,3.176,11.072,3.176c2.56,0,5.08-0.445,7.322-1.276 c-4.364,5.421-10.908,8.588-17.969,8.588c-6.443,0-12.422-2.588-16.836-7.286c-4.41-4.695-6.615-10.838-6.21-17.298 c0.72-11.477,9.91-20.739,21.378-21.543C50.38,28.42,50.941,28.4,51.493,28.4L51.493,28.4 M51.493,27 c-0.584,0-1.173,0.02-1.766,0.062C37.615,27.911,27.81,37.796,27.05,49.914c-0.893,14.242,10.393,26.072,24.443,26.072 c8.705,0,16.346-4.543,20.689-11.385c0.311-0.49-0.089-1.064-0.582-1.064c-0.109,0-0.222,0.028-0.334,0.091 c-2.654,1.503-5.891,2.246-9.126,2.246c-3.725,0-7.447-0.985-10.28-2.93c-9.132-6.271-8.215-17.33-0.501-17.33 c0.045,0,0.089,0,0.134,0.001c6.67,0.109,7.092,7.834,4.142,10.534c-0.503,0.46-0.368,1.306,0.223,1.645 c2.471,1.42,4.989,2.06,7.356,2.06c7.393,0,13.324-6.24,11.853-14.453c-0.291-1.466-0.567-2.414-1.044-3.529 C70.285,33.127,61.604,27,51.493,27L51.493,27z"/><path fill="#472b29" d="M53.942,74.93c-0.015,0-0.029-0.001-0.044-0.004c-6.526-1.169-10.987-4.279-12.902-8.995 c-0.052-0.128,0.01-0.273,0.138-0.325c0.126-0.053,0.273,0.009,0.325,0.138c1.848,4.548,6.179,7.553,12.527,8.69 c0.136,0.024,0.227,0.154,0.202,0.29C54.167,74.845,54.062,74.93,53.942,74.93z"/><path fill="#472b29" d="M40.504,63.677c-0.116,0-0.221-0.082-0.245-0.2c-0.407-2.001-0.418-4.135-0.03-6.342 c0.023-0.137,0.144-0.23,0.289-0.203c0.136,0.023,0.228,0.153,0.203,0.289c-0.376,2.146-0.367,4.217,0.028,6.156 c0.027,0.135-0.06,0.268-0.195,0.295C40.537,63.675,40.521,63.677,40.504,63.677z"/><path fill="#472b29" d="M41.018,55.152c-0.024,0-0.049-0.004-0.072-0.011c-0.133-0.04-0.207-0.18-0.167-0.312 c0.939-3.096,2.582-5.736,4.287-6.892c0.114-0.078,0.269-0.049,0.348,0.066c0.077,0.115,0.048,0.271-0.066,0.348 c-1.615,1.094-3.183,3.631-4.09,6.622C41.224,55.083,41.125,55.152,41.018,55.152z"/><path fill="#472b29" d="M55.004,45.864c-0.081,0-0.161-0.04-0.209-0.113c-2.555-3.903-6.56-6.224-11.276-6.532 c-0.138-0.009-0.242-0.128-0.232-0.266c0.008-0.137,0.101-0.261,0.266-0.232c4.877,0.318,9.019,2.718,11.661,6.757 c0.076,0.115,0.043,0.271-0.072,0.346C55.099,45.852,55.051,45.864,55.004,45.864z"/><path fill="#472b29" d="M34.858,40.879c-0.094,0-0.184-0.054-0.227-0.145c-0.059-0.125-0.004-0.273,0.121-0.332 c1.889-0.883,3.985-1.451,6.063-1.644c0.136-0.018,0.26,0.089,0.272,0.226c0.013,0.138-0.089,0.26-0.226,0.272 c-2.021,0.187-4.061,0.739-5.898,1.599C34.93,40.871,34.894,40.879,34.858,40.879z"/><path fill="#472b29" d="M27.979,47.334c-0.035,0-0.071-0.008-0.105-0.023c-0.125-0.059-0.18-0.207-0.121-0.332 c0.961-2.058,2.625-3.909,4.813-5.354c0.113-0.073,0.27-0.045,0.347,0.071c0.076,0.115,0.044,0.271-0.071,0.347 c-2.111,1.394-3.714,3.174-4.636,5.147C28.164,47.28,28.073,47.334,27.979,47.334z"/></g><g><path fill="#fdfcef" d="M83.5,55.5c0,0,1.567,0,3.5,0s3.5-1.567,3.5-3.5c0-1.781-1.335-3.234-3.055-3.455 C87.473,48.366,87.5,48.187,87.5,48c0-1.933-1.567-3.5-3.5-3.5c-1.032,0-1.95,0.455-2.59,1.165 c-0.384-1.808-1.987-3.165-3.91-3.165c-2.209,0-4,1.791-4,4c0,0.191,0.03,0.374,0.056,0.558C73.128,46.714,72.592,46.5,72,46.5 c-1.228,0-2.245,0.887-2.455,2.055C69.366,48.527,69.187,48.5,69,48.5c-1.933,0-3.5,1.567-3.5,3.5s1.567,3.5,3.5,3.5s7.5,0,7.5,0 V56h7V55.5z"/><path fill="#472b29" d="M85.25,51C85.112,51,85,50.888,85,50.75c0-1.223,0.995-2.218,2.218-2.218 c0.034,0.009,0.737-0.001,1.244,0.136c0.133,0.036,0.212,0.173,0.176,0.306c-0.036,0.134-0.173,0.213-0.306,0.176 c-0.444-0.12-1.1-0.12-1.113-0.118c-0.948,0-1.719,0.771-1.719,1.718C85.5,50.888,85.388,51,85.25,51z"/><circle cx="78.5" cy="55.5" r=".5" fill="#472b29"/><path fill="#472b29" d="M87,56h-3.5c-0.276,0-0.5-0.224-0.5-0.5s0.224-0.5,0.5-0.5H87c1.654,0,3-1.346,3-3 c0-1.496-1.125-2.768-2.618-2.959c-0.134-0.018-0.255-0.088-0.336-0.196s-0.115-0.244-0.094-0.377C86.975,48.314,87,48.16,87,48 c0-1.654-1.346-3-3-3c-0.85,0-1.638,0.355-2.219,1c-0.125,0.139-0.321,0.198-0.5,0.148c-0.182-0.049-0.321-0.195-0.36-0.379 C80.58,44.165,79.141,43,77.5,43c-1.93,0-3.5,1.57-3.5,3.5c0,0.143,0.021,0.28,0.041,0.418c0.029,0.203-0.063,0.438-0.242,0.54 c-0.179,0.102-0.396,0.118-0.556-0.01C72.878,47.155,72.449,47,72,47c-0.966,0-1.792,0.691-1.963,1.644 c-0.048,0.267-0.296,0.446-0.569,0.405C69.314,49.025,69.16,49,69,49c-1.654,0-3,1.346-3,3s1.346,3,3,3h7.5 c0.276,0,0.5,0.224,0.5,0.5S76.776,56,76.5,56H69c-2.206,0-4-1.794-4-4s1.794-4,4-4c0.059,0,0.116,0.002,0.174,0.006 C69.588,46.82,70.711,46,72,46c0.349,0,0.689,0.061,1.011,0.18C73.176,43.847,75.126,42,77.5,42c1.831,0,3.466,1.127,4.153,2.774 C82.333,44.276,83.155,44,84,44c2.206,0,4,1.794,4,4c0,0.048-0.001,0.095-0.004,0.142C89.739,48.59,91,50.169,91,52 C91,54.206,89.206,56,87,56z"/><path fill="#472b29" d="M81.5,55c-0.159,0-0.841,0-1,0c-0.276,0-0.5,0.224-0.5,0.5c0,0.276,0.224,0.5,0.5,0.5 c0.159,0,0.841,0,1,0c0.276,0,0.5-0.224,0.5-0.5C82,55.224,81.776,55,81.5,55z"/></g></svg>