<svg xmlns="http://www.w3.org/2000/svg"  viewBox="0 0 100 100" width="100px" height="100px"><path fill="#c7ede6" d="M88.884,55.879c0.3-0.616,0.566-1.264,0.796-1.943c2.633-7.77-1.349-17.078-9.733-19.325c-0.906-11.384-8.906-19.193-17.941-20.526c-10.341-1.525-19.814,5.044-22.966,15.485c-3.799-1.346-7.501-1.182-10.99,0.857c-1.583,0.732-3.031,1.812-4.33,3.233c-1.907,2.086-3.147,4.719-3.652,7.495c-0.748,0.118-1.483,0.236-2.176,0.484c-4.04,1.449-6.589,4.431-7.288,8.923c-0.435,2.797,0.443,5.587,0.933,6.714c1.935,4.455,6.422,6.98,10.981,6.312c0.227-0.033,0.557,0.069,0.752,0.233c0.241,7.12,3.698,13.417,8.884,17.014c8.321,5.772,19.027,3.994,25.781-3.921c2.894,2.96,6.338,4.398,10.384,3.876c4.023-0.519,7.147-2.739,9.426-6.349c1.053,0.283,2.051,0.691,3.083,0.804c4.042,0.442,7.324-1.165,9.732-4.8c0.922-1.391,1.793-3.194,1.793-6.354C92.355,60.836,91.061,57.869,88.884,55.879z"/><path fill="#fdfcef" d="M76.99,49.251c0,0,11.691,0,11.762,0c2.7,0,4.888-2.189,4.888-4.889c0-2.355-1.666-4.321-3.884-4.784c0.026-0.206,0.043-0.415,0.043-0.628c0-2.796-2.267-5.063-5.063-5.063c-1.651,0-3.113,0.794-4.037,2.017c-0.236-3.113-3.017-5.514-6.27-5.116c-2.379,0.291-4.346,2.13-4.784,4.486c-0.14,0.756-0.126,1.489,0.014,2.177c-0.638-0.687-1.546-1.119-2.557-1.119c-1.85,0-3.361,1.441-3.48,3.261c-0.84-0.186-1.754-0.174-2.717,0.188c-1.84,0.691-3.15,2.423-3.227,4.387c-0.109,2.789,2.12,5.085,4.885,5.085c0.21,0,0.948,0,1.118,0h10.151"/><path fill="#472b29" d="M88.752,49.751H76.99c-0.276,0-0.5-0.224-0.5-0.5s0.224-0.5,0.5-0.5h11.762c2.419,0,4.388-1.969,4.388-4.389c0-2.066-1.466-3.873-3.486-4.295c-0.255-0.053-0.426-0.292-0.394-0.55c0.023-0.187,0.039-0.375,0.039-0.567c0-2.516-2.047-4.563-4.563-4.563c-1.438,0-2.765,0.663-3.638,1.818c-0.125,0.166-0.339,0.239-0.54,0.178c-0.199-0.059-0.342-0.234-0.357-0.441c-0.104-1.377-0.779-2.671-1.851-3.549c-1.082-0.888-2.452-1.28-3.86-1.109c-2.166,0.265-3.956,1.943-4.353,4.081c-0.125,0.667-0.12,1.335,0.012,1.986c0.045,0.219-0.062,0.442-0.261,0.544c-0.199,0.102-0.442,0.06-0.595-0.104c-0.574-0.619-1.352-0.959-2.19-0.959c-1.569,0-2.878,1.227-2.981,2.793c-0.01,0.146-0.082,0.28-0.199,0.367s-0.267,0.118-0.408,0.088c-0.84-0.186-1.637-0.13-2.433,0.167c-1.669,0.626-2.836,2.209-2.903,3.938c-0.047,1.207,0.387,2.35,1.222,3.218c0.835,0.868,1.959,1.347,3.164,1.347h11.269c0.276,0,0.5,0.224,0.5,0.5s-0.224,0.5-0.5,0.5H62.564c-1.479,0-2.859-0.587-3.884-1.654c-1.025-1.066-1.558-2.469-1.5-3.95c0.083-2.126,1.51-4.069,3.551-4.836c0.8-0.3,1.629-0.401,2.468-0.298c0.376-1.823,1.997-3.182,3.905-3.182c0.684,0,1.354,0.179,1.944,0.509c0-0.385,0.035-0.772,0.107-1.159c0.476-2.562,2.62-4.573,5.215-4.891c1.676-0.206,3.32,0.266,4.615,1.328c1.004,0.823,1.716,1.951,2.038,3.193c1.012-0.916,2.319-1.425,3.714-1.425c3.067,0,5.563,2.496,5.563,5.563c0,0.083-0.002,0.167-0.007,0.249c2.254,0.672,3.848,2.777,3.848,5.164C94.14,47.333,91.723,49.751,88.752,49.751z"/><path fill="#fdfcef" d="M74.157,38.482c-1.808-0.119-3.365,1.13-3.476,2.789c-0.014,0.206-0.005,0.409,0.025,0.606c-0.349-0.394-0.865-0.661-1.458-0.7c-1.085-0.071-2.022,0.645-2.158,1.62c-0.197-0.054-0.403-0.09-0.616-0.104c-1.582-0.104-2.944,0.989-3.042,2.441"/><path fill="#472b29" d="M63.433,45.383c-0.006,0-0.012,0-0.017,0c-0.138-0.009-0.242-0.128-0.233-0.266c0.106-1.586,1.592-2.787,3.307-2.674c0.136,0.009,0.272,0.027,0.409,0.053c0.274-0.968,1.257-1.637,2.365-1.568c0.425,0.028,0.824,0.161,1.164,0.382c0-0.019,0.002-0.037,0.003-0.055c0.121-1.794,1.793-3.138,3.743-3.022c0.138,0.009,0.242,0.128,0.233,0.266c-0.009,0.138-0.13,0.25-0.266,0.233c-1.659-0.11-3.108,1.038-3.21,2.557c-0.012,0.184-0.004,0.37,0.023,0.552c0.017,0.109-0.041,0.217-0.141,0.264c-0.101,0.047-0.22,0.023-0.293-0.061c-0.317-0.358-0.787-0.583-1.288-0.616c-0.936-0.059-1.774,0.555-1.893,1.405c-0.01,0.071-0.05,0.134-0.11,0.174c-0.061,0.04-0.133,0.051-0.204,0.033c-0.188-0.051-0.379-0.084-0.567-0.096c-1.441-0.102-2.687,0.896-2.775,2.208C63.673,45.282,63.563,45.383,63.433,45.383z"/><path fill="#fdfcef" d="M90.731,40.151c-1.699-0.801-3.664-0.234-4.389,1.267c-0.09,0.186-0.157,0.379-0.201,0.574"/><path fill="#472b29" d="M86.141,42.241c-0.018,0-0.037-0.002-0.056-0.006c-0.134-0.03-0.219-0.165-0.188-0.299c0.049-0.214,0.123-0.425,0.22-0.626c0.783-1.622,2.901-2.244,4.72-1.384c0.125,0.059,0.179,0.208,0.12,0.333c-0.059,0.125-0.209,0.178-0.333,0.12c-1.574-0.742-3.393-0.227-4.057,1.149c-0.081,0.167-0.142,0.342-0.183,0.521C86.358,42.163,86.255,42.241,86.141,42.241z"/><path fill="#fff" d="M18.55 47.915H8.519c-.276 0-.5-.224-.5-.5s.224-.5.5-.5H18.55c.276 0 .5.224.5.5S18.826 47.915 18.55 47.915zM21.431 47.915h-1.446c-.276 0-.5-.224-.5-.5s.224-.5.5-.5h1.446c.276 0 .5.224.5.5S21.707 47.915 21.431 47.915zM25.485 47.915h-2.546c-.276 0-.5-.224-.5-.5s.224-.5.5-.5h2.546c.276 0 .5.224.5.5S25.762 47.915 25.485 47.915zM25.485 49.78h-9.616c-.276 0-.5-.224-.5-.5s.224-.5.5-.5h9.616c.276 0 .5.224.5.5S25.762 49.78 25.485 49.78zM14.137 49.78h-.58c-.276 0-.5-.224-.5-.5s.224-.5.5-.5h.58c.276 0 .5.224.5.5S14.414 49.78 14.137 49.78zM11.761 49.78h-1.457c-.276 0-.5-.224-.5-.5s.224-.5.5-.5h1.457c.276 0 .5.224.5.5S12.037 49.78 11.761 49.78zM20.896 46.05h-5.027c-.276 0-.5-.224-.5-.5s.224-.5.5-.5h5.027c.276 0 .5.224.5.5S21.173 46.05 20.896 46.05zM20.896 44.185h-1.257c-.276 0-.5-.224-.5-.5s.224-.5.5-.5h1.257c.276 0 .5.224.5.5S21.173 44.185 20.896 44.185zM17.627 51.645h-1.758c-.276 0-.5-.224-.5-.5s.224-.5.5-.5h1.758c.276 0 .5.224.5.5S17.904 51.645 17.627 51.645z"/><g><path fill="#fff" d="M71.728 21.638H61.697c-.276 0-.5-.224-.5-.5s.224-.5.5-.5h10.031c.276 0 .5.224.5.5S72.004 21.638 71.728 21.638zM74.608 21.638h-1.446c-.276 0-.5-.224-.5-.5s.224-.5.5-.5h1.446c.276 0 .5.224.5.5S74.885 21.638 74.608 21.638zM78.663 21.638h-2.546c-.276 0-.5-.224-.5-.5s.224-.5.5-.5h2.546c.276 0 .5.224.5.5S78.939 21.638 78.663 21.638zM76.637 17.909h-9.616c-.276 0-.5-.224-.5-.5s.224-.5.5-.5h9.616c.276 0 .5.224.5.5S76.914 17.909 76.637 17.909zM65.29 17.909h-.58c-.276 0-.5-.224-.5-.5s.224-.5.5-.5h.58c.276 0 .5.224.5.5S65.566 17.909 65.29 17.909zM62.913 17.909h-1.456c-.276 0-.5-.224-.5-.5s.224-.5.5-.5h1.456c.276 0 .5.224.5.5S63.189 17.909 62.913 17.909zM74.074 19.773h-5.027c-.276 0-.5-.224-.5-.5s.224-.5.5-.5h5.027c.276 0 .5.224.5.5S74.351 19.773 74.074 19.773z"/><path fill="#fff" d="M74.074 17.909h-1.257c-.276 0-.5-.224-.5-.5s.224-.5.5-.5h1.257c.276 0 .5.224.5.5S74.351 17.909 74.074 17.909zM67.592 19.773h-1.759c-.276 0-.5-.224-.5-.5s.224-.5.5-.5h1.759c.276 0 .5.224.5.5S67.868 19.773 67.592 19.773z"/></g><g><path fill="#ec795a" d="M66.996,72.849H37.283c-3.766,0-6.847-3.081-6.847-6.847V36.288c0-3.766,3.081-6.847,6.847-6.847h29.713c3.766,0,6.847,3.081,6.847,6.847v29.713C73.843,69.767,70.762,72.849,66.996,72.849z"/><path fill="#472b29" d="M66.996,73.549H37.283c-4.162,0-7.547-3.386-7.547-7.547V36.289c0-4.162,3.386-7.547,7.547-7.547h29.713c4.162,0,7.547,3.386,7.547,7.547v29.713C74.543,70.163,71.157,73.549,66.996,73.549z M37.283,30.142c-3.39,0-6.147,2.757-6.147,6.147v29.713c0,3.39,2.757,6.147,6.147,6.147h29.713c3.39,0,6.147-2.757,6.147-6.147V36.289c0-3.39-2.757-6.147-6.147-6.147H37.283z"/><path fill="#fdfcee" d="M65.194,69.748H39.085c-3.052,0-5.549-2.497-5.549-5.549V38.091c0-3.052,2.497-5.549,5.549-5.549h26.109c3.052,0,5.549,2.497,5.549,5.549v26.109C70.742,67.251,68.245,69.748,65.194,69.748z"/><path fill="#472b29" d="M65.088 70.098H39.19c-3.311 0-6.004-2.693-6.004-6.004V38.196c0-3.311 2.693-6.004 6.004-6.004h24.662c.193 0 .35.157.35.35s-.157.35-.35.35H39.19c-2.924 0-5.304 2.379-5.304 5.304v25.898c0 2.924 2.379 5.304 5.304 5.304h25.898c2.924 0 5.304-2.379 5.304-5.304V49.767c0-.193.157-.35.35-.35s.35.157.35.35v14.327C71.092 67.405 68.399 70.098 65.088 70.098zM70.742 48.05c-.193 0-.35-.157-.35-.35v-2.756c0-.193.157-.35.35-.35s.35.157.35.35V47.7C71.092 47.893 70.936 48.05 70.742 48.05z"/><g><path fill="#472b29" d="M70.742,43.916c-0.193,0-0.35-0.157-0.35-0.35v-1.378c0-0.193,0.157-0.35,0.35-0.35s0.35,0.157,0.35,0.35v1.378C71.092,43.759,70.936,43.916,70.742,43.916z"/></g><g><path fill="#ec795a" d="M43.405,56.503c-0.039-0.1-0.111-0.2-0.112-0.3c-0.007-1.687-0.005-3.373-0.005-5.06c0-1.812,0.004-3.623-0.005-5.435c-0.001-0.223,0.065-0.325,0.277-0.403c3.103-1.141,6.202-2.293,9.306-3.434c0.133-0.049,0.31-0.056,0.444-0.013c1.607,0.505,3.208,1.028,4.814,1.534c0.224,0.071,0.303,0.171,0.302,0.413c-0.008,4.768-0.008,9.537,0.001,14.305c0,0.258-0.081,0.357-0.321,0.427c-1.596,0.47-3.186,0.959-4.781,1.429c-0.146,0.043-0.333,0.04-0.476-0.011c-3.045-1.087-6.087-2.184-9.128-3.283c-0.114-0.041-0.216-0.117-0.323-0.176c3.215,0.391,6.429,0.781,9.655,1.173c0-4.317,0-8.567,0-12.864c-2.124,0.496-4.214,0.984-6.326,1.478c0,0.145,0,0.269,0,0.392c0,2.613-0.008,5.226,0.009,7.839c0.003,0.376-0.092,0.565-0.454,0.713C45.312,55.624,44.363,56.074,43.405,56.503z"/><path fill="#472b29" d="M53.107,60.322c-0.127,0-0.255-0.021-0.367-0.06c-3.045-1.087-6.087-2.185-9.129-3.283c-0.109-0.039-0.2-0.095-0.281-0.145L43.272,56.8c-0.034-0.015-0.064-0.036-0.091-0.061c-0.046-0.042-0.079-0.095-0.096-0.154l-0.016-0.033c-0.042-0.086-0.101-0.205-0.102-0.348c-0.005-1.381-0.005-2.761-0.005-4.142l0-2.242c0.001-1.37,0.002-2.74-0.005-4.111c-0.002-0.36,0.154-0.585,0.49-0.709c1.551-0.57,3.102-1.144,4.652-1.717c1.551-0.573,3.102-1.146,4.653-1.717c0.204-0.075,0.455-0.082,0.654-0.018c0.841,0.265,1.68,0.534,2.52,0.802c0.765,0.245,1.529,0.49,2.295,0.732c0.362,0.114,0.53,0.344,0.529,0.724c-0.008,4.768-0.008,9.536,0.001,14.304c0,0.398-0.17,0.626-0.554,0.74c-0.797,0.234-1.593,0.474-2.389,0.713c-0.797,0.24-1.594,0.48-2.393,0.715C53.321,60.307,53.214,60.322,53.107,60.322z M45.96,57.136c2.332,0.841,4.665,1.68,6.999,2.514c0.078,0.028,0.192,0.031,0.275,0.006c0.798-0.235,1.593-0.475,2.389-0.714c0.797-0.24,1.594-0.48,2.393-0.715c0.051-0.015,0.075-0.027,0.085-0.032c-0.002-0.005,0.003-0.031,0.002-0.083c-0.009-4.769-0.009-9.537-0.001-14.306c0-0.045-0.003-0.069-0.006-0.079l0,0c-0.005,0-0.026-0.01-0.068-0.023c-0.767-0.242-1.533-0.487-2.298-0.733c-0.838-0.269-1.676-0.537-2.516-0.801c-0.064-0.021-0.167-0.017-0.235,0.008c-1.551,0.57-3.102,1.144-4.652,1.717c-1.551,0.573-3.102,1.146-4.653,1.717c0,0-0.064,0.096-0.064,0.096c0.007,1.371,0.006,2.743,0.005,4.114l-0.001,2.242c0,1.329,0,2.658,0.004,3.987l0.467-0.211c0.688-0.313,1.376-0.626,2.075-0.912c0.221-0.09,0.254-0.144,0.252-0.411c-0.014-1.988-0.012-3.976-0.011-5.964l0.001-2.269c0-0.151,0.104-0.282,0.251-0.316l6.327-1.478c0.098-0.023,0.199,0,0.276,0.062c0.078,0.062,0.123,0.155,0.123,0.254V57.67c0,0.093-0.04,0.182-0.11,0.243c-0.069,0.062-0.162,0.09-0.254,0.08L45.96,57.136z M44.605,56.316l8.124,0.987V45.216l-5.676,1.326l-0.001,2.011c-0.001,1.986-0.003,3.973,0.011,5.959c0.003,0.53-0.187,0.824-0.656,1.017C45.8,55.776,45.202,56.045,44.605,56.316z"/></g></g><g><path fill="#fdfcef" d="M40.826,75.616c1.883,0,3.517,0,3.54,0c2.11,0,3.821-1.674,3.821-3.739c0-1.802-1.302-3.305-3.035-3.66c0.02-0.158,0.034-0.317,0.034-0.48c0-2.139-1.772-3.873-3.957-3.873c-1.29,0-2.433,0.607-3.155,1.543c-0.185-2.381-2.358-4.218-4.9-3.913c-1.859,0.223-3.397,1.629-3.739,3.431c-0.11,0.578-0.098,1.139,0.011,1.665c-0.498-0.525-1.208-0.856-1.998-0.856c-1.446,0-2.627,1.102-2.72,2.494c-0.657-0.142-1.371-0.133-2.123,0.143c-1.438,0.528-2.462,1.853-2.522,3.356c-0.085,2.133,1.657,3.889,3.818,3.889c0.164,0,0.741,0,0.874,0h7.934 M34.349,75.616h0.36"/><path fill="#472b29" d="M44.366,76.116h-3.54c-0.276,0-0.5-0.224-0.5-0.5s0.224-0.5,0.5-0.5h3.54c1.831,0,3.321-1.453,3.321-3.239c0-1.524-1.108-2.857-2.636-3.17c-0.256-0.052-0.429-0.293-0.396-0.553c0.018-0.137,0.03-0.276,0.03-0.417c0-1.86-1.551-3.373-3.457-3.373c-1.092,0-2.098,0.491-2.76,1.348c-0.126,0.164-0.34,0.233-0.539,0.173c-0.198-0.059-0.339-0.234-0.355-0.44c-0.079-1.019-0.565-1.943-1.369-2.603c-0.829-0.679-1.883-0.982-2.973-0.853c-1.646,0.197-3.006,1.442-3.307,3.028c-0.094,0.495-0.091,0.989,0.009,1.471c0.045,0.219-0.06,0.441-0.258,0.544c-0.197,0.104-0.44,0.063-0.594-0.099c-0.428-0.451-1.009-0.7-1.635-0.7c-1.169,0-2.145,0.891-2.221,2.028c-0.01,0.145-0.082,0.279-0.198,0.366s-0.265,0.119-0.407,0.089c-0.639-0.14-1.242-0.098-1.845,0.124c-1.262,0.464-2.144,1.631-2.195,2.906c-0.035,0.875,0.283,1.708,0.895,2.345c0.635,0.661,1.495,1.024,2.423,1.024h8.808c0.276,0,0.5,0.224,0.5,0.5s-0.224,0.5-0.5,0.5h-8.808c-1.185,0-2.331-0.485-3.144-1.332c-0.802-0.834-1.219-1.928-1.173-3.078c0.067-1.674,1.212-3.203,2.849-3.805c0.61-0.225,1.241-0.307,1.88-0.244c0.344-1.396,1.629-2.424,3.135-2.424c0.493,0,0.977,0.113,1.414,0.323c0.009-0.242,0.037-0.484,0.083-0.726c0.381-2.009,2.096-3.586,4.17-3.834c1.359-0.162,2.685,0.218,3.726,1.072c0.748,0.614,1.278,1.41,1.546,2.302c0.791-0.648,1.786-1.007,2.842-1.007c2.458,0,4.457,1.962,4.457,4.373c0,0.034,0,0.068-0.001,0.102c1.764,0.555,3.003,2.188,3.003,4.038C48.687,74.214,46.749,76.116,44.366,76.116z M34.708,76.116h-0.36c-0.276,0-0.5-0.224-0.5-0.5s0.224-0.5,0.5-0.5h0.36c0.276,0,0.5,0.224,0.5,0.5S34.985,76.116,34.708,76.116z"/><path fill="#472b29" d="M42.659,70.313c-0.018,0-0.036-0.002-0.054-0.006c-0.135-0.03-0.22-0.164-0.19-0.298c0.037-0.164,0.094-0.326,0.169-0.479c0.606-1.223,2.277-1.674,3.723-1.007c0.125,0.058,0.18,0.207,0.122,0.332c-0.058,0.125-0.207,0.18-0.332,0.122c-1.203-0.556-2.577-0.209-3.064,0.774c-0.058,0.118-0.102,0.241-0.129,0.367C42.877,70.234,42.773,70.313,42.659,70.313z"/><g><path fill="#472b29" d="M37.5,76.116h-1.107c-0.276,0-0.5-0.224-0.5-0.5s0.224-0.5,0.5-0.5H37.5c0.276,0,0.5,0.224,0.5,0.5S37.776,76.116,37.5,76.116z"/></g></g></svg>